<svg width="25" height="22" viewBox="0 0 25 22" fill="none" xmlns="http://www.w3.org/2000/svg">
<path d="M22.5106 1.32307L22.4301 1.11866C22.4277 1.11279 22.4232 1.10795 22.4174 1.10533L22.2174 1.01448C20.5715 0.266387 18.2498 0.0818034 16.1957 0H13.8821C13.856 0 13.848 0.0353228 13.8716 0.0466082L18.6238 2.32645C18.6507 2.33927 18.6358 2.37918 18.607 2.37166C16.4698 1.81313 14.3106 1.53042 12.1786 1.53042C10.0534 1.53042 7.90131 1.81141 5.7706 2.36637C5.74161 2.37389 5.72689 2.33353 5.7541 2.32097L10.6731 0.0468632C10.697 0.0358328 10.6892 0.000127506 10.6629 0.000127506H8.16153C6.10747 0.0819309 3.78568 0.266514 2.13979 1.0146L1.93985 1.10546C1.93405 1.10808 1.92946 1.11286 1.92717 1.11879L1.84663 1.3232C0.162199 5.59419 -0.316445 12.8448 0.193994 17.3871L0.220756 17.6253L0.410124 17.7723C3.04152 19.8141 6.56006 20.8639 8.77353 21.1425L9.05975 21.1785C9.15278 21.1903 9.24166 21.1364 9.27454 21.0486L10.7152 17.1971C10.7601 17.077 10.6837 16.9459 10.5571 16.926L10.115 16.8565C8.57352 16.6142 6.38948 15.9717 4.54379 14.2968C4.50441 14.261 4.54238 14.1967 4.59221 14.2152C4.7422 14.271 4.90761 14.3357 5.07793 14.4022C5.49528 14.5654 5.9269 14.7341 6.20853 14.8011C8.18784 15.272 10.195 15.5108 12.1785 15.5108V15.4755H12.1826L12.1829 15.5108C14.1623 15.5108 16.1694 15.272 18.1485 14.8011C18.4303 14.734 18.8619 14.5654 19.2793 14.4022C19.4495 14.3356 19.6148 14.271 19.7648 14.2152C19.8146 14.1967 19.8526 14.2611 19.8132 14.2968C17.9737 15.9643 15.7869 16.6051 14.2419 16.8473L13.8 16.9165C13.6735 16.9364 13.5969 17.0673 13.6417 17.1874L15.0826 21.0484C15.1154 21.1363 15.2044 21.1902 15.2974 21.1785L15.5839 21.1424C17.7972 20.8639 21.3155 19.8141 23.947 17.7722L24.1364 17.6253L24.1631 17.3871C24.6736 12.8448 24.195 5.59413 22.5106 1.32307ZM7.4765 11.8091C5.68713 11.9687 4.1943 10.475 4.35365 8.68448C4.47586 7.31193 5.58034 6.2066 6.95204 6.08418C8.74142 5.92453 10.2343 7.41822 10.0749 9.20878C9.95262 10.5813 8.84815 11.6867 7.4765 11.8091ZM17.4053 11.8091C15.6159 11.9687 14.1231 10.475 14.2825 8.68448C14.4047 7.31193 15.5092 6.2066 16.8809 6.08418C18.6702 5.92453 20.1631 7.41822 20.0037 9.20878C19.8814 10.5813 18.777 11.6867 17.4053 11.8091Z" fill="#FAEB8C"/>
</svg>
