<svg width="119" height="78" viewBox="0 0 119 78" fill="none" xmlns="http://www.w3.org/2000/svg">
<path d="M9.32 18.6H22.76V23.8H9.32V18.6ZM9.8 34H3.32V6H24.48V11.2H9.8V34ZM41.3069 34.48C37.3335 34.48 34.2269 33.3733 31.9869 31.16C29.7469 28.9467 28.6269 25.7867 28.6269 21.68V6H35.1069V21.44C35.1069 24.1067 35.6535 26.0267 36.7469 27.2C37.8402 28.3733 39.3735 28.96 41.3469 28.96C43.3202 28.96 44.8535 28.3733 45.9469 27.2C47.0402 26.0267 47.5869 24.1067 47.5869 21.44V6H53.9869V21.68C53.9869 25.7867 52.8669 28.9467 50.6269 31.16C48.3869 33.3733 45.2802 34.48 41.3069 34.48ZM60.3903 34V6H65.7503L82.2703 26.16H79.6703V6H86.0703V34H80.7503L64.1903 13.84H66.7903V34H60.3903ZM22.52 45H29V73H22.52V45ZM9.8 73H3.32V45H9.8V73ZM23 61.52H9.32V56.04H23V61.52ZM31.9447 73L44.4247 45H50.8247L63.3447 73H56.5447L46.3047 48.28H48.8647L38.5847 73H31.9447ZM38.1847 67L39.9047 62.08H54.3047L56.0647 67H38.1847ZM78.1038 73.48C74.1304 73.48 71.0238 72.3733 68.7838 70.16C66.5438 67.9467 65.4238 64.7867 65.4238 60.68V45H71.9038V60.44C71.9038 63.1067 72.4504 65.0267 73.5438 66.2C74.6371 67.3733 76.1704 67.96 78.1438 67.96C80.1171 67.96 81.6504 67.3733 82.7438 66.2C83.8371 65.0267 84.3837 63.1067 84.3837 60.44V45H90.7838V60.68C90.7838 64.7867 89.6638 67.9467 87.4238 70.16C85.1838 72.3733 82.0771 73.48 78.1038 73.48Z" fill="#FAEB8C"/>
<path d="M9.32 18.6V17.6H8.32V18.6H9.32ZM22.76 18.6H23.76V17.6H22.76V18.6ZM22.76 23.8V24.8H23.76V23.8H22.76ZM9.32 23.8H8.32V24.8H9.32V23.8ZM9.8 34V35H10.8V34H9.8ZM3.32 34H2.32V35H3.32V34ZM3.32 6V5H2.32V6H3.32ZM24.48 6H25.48V5H24.48V6ZM24.48 11.2V12.2H25.48V11.2H24.48ZM9.8 11.2V10.2H8.8V11.2H9.8ZM9.32 19.6H22.76V17.6H9.32V19.6ZM21.76 18.6V23.8H23.76V18.6H21.76ZM22.76 22.8H9.32V24.8H22.76V22.8ZM10.32 23.8V18.6H8.32V23.8H10.32ZM9.8 33H3.32V35H9.8V33ZM4.32 34V6H2.32V34H4.32ZM3.32 7H24.48V5H3.32V7ZM23.48 6V11.2H25.48V6H23.48ZM24.48 10.2H9.8V12.2H24.48V10.2ZM8.8 11.2V34H10.8V11.2H8.8ZM31.9869 31.16L32.6897 30.4487L32.6897 30.4487L31.9869 31.16ZM28.6269 6V5H27.6269V6H28.6269ZM35.1069 6H36.1069V5H35.1069V6ZM36.7469 27.2L36.0153 27.8817L36.0153 27.8817L36.7469 27.2ZM45.9469 27.2L46.6785 27.8817L46.6785 27.8817L45.9469 27.2ZM47.5869 6V5H46.5869V6H47.5869ZM53.9869 6H54.9869V5H53.9869V6ZM50.6269 31.16L51.3297 31.8713L51.3297 31.8713L50.6269 31.16ZM41.3069 33.48C37.5243 33.48 34.6967 32.4317 32.6897 30.4487L31.284 31.8713C33.7571 34.3149 37.1428 35.48 41.3069 35.48V33.48ZM32.6897 30.4487C30.6927 28.4754 29.6269 25.6042 29.6269 21.68H27.6269C27.6269 25.9692 28.801 29.4179 31.284 31.8713L32.6897 30.4487ZM29.6269 21.68V6H27.6269V21.68H29.6269ZM28.6269 7H35.1069V5H28.6269V7ZM34.1069 6V21.44H36.1069V6H34.1069ZM34.1069 21.44C34.1069 24.2026 34.666 26.4337 36.0153 27.8817L37.4785 26.5183C36.6411 25.6196 36.1069 24.0107 36.1069 21.44H34.1069ZM36.0153 27.8817C37.34 29.3034 39.1647 29.96 41.3469 29.96V27.96C39.5823 27.96 38.3405 27.4433 37.4785 26.5183L36.0153 27.8817ZM41.3469 29.96C43.529 29.96 45.3538 29.3034 46.6785 27.8817L45.2153 26.5183C44.3533 27.4433 43.1114 27.96 41.3469 27.96V29.96ZM46.6785 27.8817C48.0277 26.4337 48.5869 24.2026 48.5869 21.44H46.5869C46.5869 24.0107 46.0527 25.6196 45.2153 26.5183L46.6785 27.8817ZM48.5869 21.44V6H46.5869V21.44H48.5869ZM47.5869 7H53.9869V5H47.5869V7ZM52.9869 6V21.68H54.9869V6H52.9869ZM52.9869 21.68C52.9869 25.6042 51.921 28.4754 49.924 30.4487L51.3297 31.8713C53.8127 29.4179 54.9869 25.9692 54.9869 21.68H52.9869ZM49.924 30.4487C47.9171 32.4317 45.0895 33.48 41.3069 33.48V35.48C45.471 35.48 48.8567 34.3149 51.3297 31.8713L49.924 30.4487ZM60.3903 34H59.3903V35H60.3903V34ZM60.3903 6V5H59.3903V6H60.3903ZM65.7503 6L66.5238 5.36618L66.2237 5H65.7503V6ZM82.2703 26.16V27.16H84.3826L83.0438 25.5262L82.2703 26.16ZM79.6703 26.16H78.6703V27.16H79.6703V26.16ZM79.6703 6V5H78.6703V6H79.6703ZM86.0703 6H87.0703V5H86.0703V6ZM86.0703 34V35H87.0703V34H86.0703ZM80.7503 34L79.9776 34.6347L80.2776 35H80.7503V34ZM64.1903 13.84V12.84H62.0748L63.4176 14.4747L64.1903 13.84ZM66.7903 13.84H67.7903V12.84H66.7903V13.84ZM66.7903 34V35H67.7903V34H66.7903ZM61.3903 34V6H59.3903V34H61.3903ZM60.3903 7H65.7503V5H60.3903V7ZM64.9768 6.63382L81.4968 26.7938L83.0438 25.5262L66.5238 5.36618L64.9768 6.63382ZM82.2703 25.16H79.6703V27.16H82.2703V25.16ZM80.6703 26.16V6H78.6703V26.16H80.6703ZM79.6703 7H86.0703V5H79.6703V7ZM85.0703 6V34H87.0703V6H85.0703ZM86.0703 33H80.7503V35H86.0703V33ZM81.523 33.3653L64.963 13.2053L63.4176 14.4747L79.9776 34.6347L81.523 33.3653ZM64.1903 14.84H66.7903V12.84H64.1903V14.84ZM65.7903 13.84V34H67.7903V13.84H65.7903ZM66.7903 33H60.3903V35H66.7903V33ZM22.52 45V44H21.52V45H22.52ZM29 45H30V44H29V45ZM29 73V74H30V73H29ZM22.52 73H21.52V74H22.52V73ZM9.8 73V74H10.8V73H9.8ZM3.32 73H2.32V74H3.32V73ZM3.32 45V44H2.32V45H3.32ZM9.8 45H10.8V44H9.8V45ZM23 61.52V62.52H24V61.52H23ZM9.32 61.52H8.32V62.52H9.32V61.52ZM9.32 56.04V55.04H8.32V56.04H9.32ZM23 56.04H24V55.04H23V56.04ZM22.52 46H29V44H22.52V46ZM28 45V73H30V45H28ZM29 72H22.52V74H29V72ZM23.52 73V45H21.52V73H23.52ZM9.8 72H3.32V74H9.8V72ZM4.32 73V45H2.32V73H4.32ZM3.32 46H9.8V44H3.32V46ZM8.8 45V73H10.8V45H8.8ZM23 60.52H9.32V62.52H23V60.52ZM10.32 61.52V56.04H8.32V61.52H10.32ZM9.32 57.04H23V55.04H9.32V57.04ZM22 56.04V61.52H24V56.04H22ZM31.9447 73L31.0313 72.5929L30.4041 74H31.9447V73ZM44.4247 45V44H43.7756L43.5113 44.5929L44.4247 45ZM50.8247 45L51.7376 44.5918L51.473 44H50.8247V45ZM63.3447 73V74H64.8872L64.2576 72.5918L63.3447 73ZM56.5447 73L55.6208 73.3827L55.8765 74H56.5447V73ZM46.3047 48.28V47.28H44.808L45.3808 48.6627L46.3047 48.28ZM48.8647 48.28L49.788 48.664L50.3636 47.28H48.8647V48.28ZM38.5847 73V74H39.2519L39.508 73.384L38.5847 73ZM38.1847 67L37.2407 66.67L36.7757 68H38.1847V67ZM39.9047 62.08V61.08H39.1949L38.9607 61.75L39.9047 62.08ZM54.3047 62.08L55.2463 61.7432L55.009 61.08H54.3047V62.08ZM56.0647 67V68H57.4845L57.0063 66.6632L56.0647 67ZM32.8581 73.4071L45.3381 45.4071L43.5113 44.5929L31.0313 72.5929L32.8581 73.4071ZM44.4247 46H50.8247V44H44.4247V46ZM49.9118 45.4082L62.4318 73.4082L64.2576 72.5918L51.7376 44.5918L49.9118 45.4082ZM63.3447 72H56.5447V74H63.3447V72ZM57.4686 72.6173L47.2286 47.8973L45.3808 48.6627L55.6208 73.3827L57.4686 72.6173ZM46.3047 49.28H48.8647V47.28H46.3047V49.28ZM47.9413 47.896L37.6613 72.616L39.508 73.384L49.788 48.664L47.9413 47.896ZM38.5847 72H31.9447V74H38.5847V72ZM39.1287 67.33L40.8487 62.41L38.9607 61.75L37.2407 66.67L39.1287 67.33ZM39.9047 63.08H54.3047V61.08H39.9047V63.08ZM53.3631 62.4168L55.1231 67.3368L57.0063 66.6632L55.2463 61.7432L53.3631 62.4168ZM56.0647 66H38.1847V68H56.0647V66ZM68.7838 70.16L69.4866 69.4487L69.4866 69.4487L68.7838 70.16ZM65.4238 45V44H64.4238V45H65.4238ZM71.9038 45H72.9038V44H71.9038V45ZM73.5438 66.2L72.8121 66.8817L72.8121 66.8817L73.5438 66.2ZM82.7438 66.2L83.4754 66.8817L83.4754 66.8817L82.7438 66.2ZM84.3837 45V44H83.3837V45H84.3837ZM90.7838 45H91.7838V44H90.7838V45ZM87.4238 70.16L88.1266 70.8713L88.1266 70.8713L87.4238 70.16ZM78.1038 72.48C74.3212 72.48 71.4936 71.4317 69.4866 69.4487L68.0809 70.8713C70.5539 73.3149 73.9397 74.48 78.1038 74.48V72.48ZM69.4866 69.4487C67.4896 67.4754 66.4238 64.6042 66.4238 60.68H64.4238C64.4238 64.9692 65.5979 68.4179 68.0809 70.8713L69.4866 69.4487ZM66.4238 60.68V45H64.4238V60.68H66.4238ZM65.4238 46H71.9038V44H65.4238V46ZM70.9038 45V60.44H72.9038V45H70.9038ZM70.9038 60.44C70.9038 63.2026 71.4629 65.4337 72.8121 66.8817L74.2754 65.5183C73.4379 64.6196 72.9038 63.0107 72.9038 60.44H70.9038ZM72.8121 66.8817C74.1368 68.3034 75.9616 68.96 78.1438 68.96V66.96C76.3792 66.96 75.1373 66.4433 74.2754 65.5183L72.8121 66.8817ZM78.1438 68.96C80.3259 68.96 82.1507 68.3034 83.4754 66.8817L82.0121 65.5183C81.1502 66.4433 79.9083 66.96 78.1438 66.96V68.96ZM83.4754 66.8817C84.8246 65.4337 85.3837 63.2026 85.3837 60.44H83.3837C83.3837 63.0107 82.8496 64.6196 82.0121 65.5183L83.4754 66.8817ZM85.3837 60.44V45H83.3837V60.44H85.3837ZM84.3837 46H90.7838V44H84.3837V46ZM89.7838 45V60.68H91.7838V45H89.7838ZM89.7838 60.68C89.7838 64.6042 88.7179 67.4754 86.7209 69.4487L88.1266 70.8713C90.6096 68.4179 91.7838 64.9692 91.7838 60.68H89.7838ZM86.7209 69.4487C84.7139 71.4317 81.8863 72.48 78.1038 72.48V74.48C82.2678 74.48 85.6536 73.3149 88.1266 70.8713L86.7209 69.4487Z" fill="#FAEB8C"/>
<path d="M99.08 71.6L98.7938 72.5582L98.8053 72.5615L99.08 71.6ZM94.12 69.24L93.2084 68.829L92.8825 69.5518L93.5119 70.0339L94.12 69.24ZM96.32 64.36L96.8995 63.545L95.9083 62.8401L95.4084 63.949L96.32 64.36ZM100.56 66.48L100.234 67.4255L100.244 67.4287L100.253 67.4317L100.56 66.48ZM108.64 66.92L108.936 67.8751L108.946 67.872L108.956 67.8687L108.64 66.92ZM110.4 65.84L109.628 65.2043L109.628 65.2043L110.4 65.84ZM110.08 62.52L109.469 63.3113L109.48 63.3202L109.492 63.3287L110.08 62.52ZM107.76 61.44L107.468 62.3964L107.48 62.4001L107.492 62.4035L107.76 61.44ZM104.56 60.64L104.333 61.614L104.347 61.617L104.36 61.6197L104.56 60.64ZM101.08 59.68L100.77 60.6309L100.777 60.6329L101.08 59.68ZM97.92 58.24L97.3985 59.0933L97.3986 59.0933L97.92 58.24ZM95.56 55.92L94.7067 56.4414L94.7119 56.45L94.7173 56.4584L95.56 55.92ZM95.96 47.88L95.1254 47.3291L95.1227 47.3332L95.96 47.88ZM99.88 44.72L100.287 45.6333L100.294 45.6304L99.88 44.72ZM111.68 44.16L111.437 45.1301L111.445 45.1319L111.452 45.1336L111.68 44.16ZM116.2 46L117.126 46.3766L117.441 45.602L116.735 45.1549L116.2 46ZM114.2 50.92L113.704 51.7882L114.696 52.3552L115.126 51.2966L114.2 50.92ZM110.28 49.28L110.005 50.2415L110.014 50.2441L110.024 50.2466L110.28 49.28ZM103.36 49.16L103.016 48.2211L103.016 48.2211L103.36 49.16ZM101.64 50.32L102.434 50.9274L102.443 50.9166L102.451 50.9055L101.64 50.32ZM102 53.68L101.389 54.4713L101.4 54.4802L101.412 54.4887L102 53.68ZM104.32 54.72L104.052 55.6835L104.052 55.6835L104.32 54.72ZM107.48 55.52L107.253 56.494L107.258 56.4951L107.48 55.52ZM110.96 56.44L110.671 57.3972L110.677 57.399L110.96 56.44ZM114.16 57.84L114.681 56.9867L114.681 56.9867L114.16 57.84ZM116.48 60.16L115.627 60.6814L115.632 60.69L115.637 60.6984L116.48 60.16ZM116.08 68.12L116.909 68.6786L116.909 68.6786L116.08 68.12ZM112.12 71.28L111.706 70.3696L111.701 70.372L112.12 71.28ZM105.52 71.48C103.368 71.48 101.314 71.1984 99.3547 70.6385L98.8053 72.5615C100.952 73.1749 103.192 73.48 105.52 73.48V71.48ZM99.3662 70.6418C97.3903 70.0516 95.8573 69.3111 94.7281 68.4461L93.5119 70.0339C94.8894 71.0889 96.663 71.9217 98.7938 72.5582L99.3662 70.6418ZM95.0316 69.651L97.2316 64.771L95.4084 63.949L93.2084 68.829L95.0316 69.651ZM95.7405 65.175C97.0303 66.0922 98.5322 66.8395 100.234 67.4255L100.886 65.5345C99.3345 65.0005 98.0097 64.3345 96.8995 63.545L95.7405 65.175ZM100.253 67.4317C102.002 67.9959 103.772 68.28 105.56 68.28V66.28C103.988 66.28 102.425 66.0307 100.867 65.5283L100.253 67.4317ZM105.56 68.28C106.889 68.28 108.028 68.1569 108.936 67.8751L108.344 65.9649C107.705 66.1631 106.791 66.28 105.56 66.28V68.28ZM108.956 67.8687C109.861 67.5672 110.638 67.1242 111.172 66.4757L109.628 65.2043C109.415 65.4624 109.019 65.7395 108.324 65.9713L108.956 67.8687ZM111.172 66.4757C111.693 65.8435 111.96 65.0989 111.96 64.28H109.96C109.96 64.6345 109.854 64.9298 109.628 65.2043L111.172 66.4757ZM111.96 64.28C111.96 63.2245 111.522 62.3325 110.668 61.7113L109.492 63.3287C109.811 63.5608 109.96 63.8422 109.96 64.28H111.96ZM110.691 61.7287C109.974 61.1742 109.072 60.7666 108.028 60.4765L107.492 62.4035C108.368 62.6468 109.013 62.9592 109.469 63.3113L110.691 61.7287ZM108.052 60.4836C107.057 60.1795 105.959 59.9055 104.76 59.6603L104.36 61.6197C105.508 61.8545 106.543 62.1138 107.468 62.3964L108.052 60.4836ZM104.787 59.666C103.667 59.4056 102.532 59.0927 101.383 58.7271L100.777 60.6329C101.974 61.0139 103.16 61.3411 104.333 61.614L104.787 59.666ZM101.39 58.7291C100.312 58.3782 99.3303 57.9299 98.4414 57.3867L97.3986 59.0933C98.4297 59.7234 99.5549 60.2351 100.77 60.6309L101.39 58.7291ZM98.4415 57.3867C97.6127 56.8803 96.9353 56.2153 96.4027 55.3816L94.7173 56.4584C95.4114 57.5447 96.3073 58.4264 97.3985 59.0933L98.4415 57.3867ZM96.4133 55.3985C95.9491 54.639 95.68 53.6079 95.68 52.24H93.68C93.68 53.8587 93.9976 55.281 94.7067 56.4414L96.4133 55.3985ZM95.68 52.24C95.68 50.829 96.0529 49.5666 96.7973 48.4268L95.1227 47.3332C94.1604 48.8068 93.68 50.451 93.68 52.24H95.68ZM96.7946 48.4308C97.5513 47.2843 98.6949 46.3437 100.287 45.6332L99.4726 43.8068C97.5984 44.6429 96.1287 45.809 95.1254 47.3292L96.7946 48.4308ZM100.294 45.6304C101.886 44.9069 103.934 44.52 106.48 44.52V42.52C103.746 42.52 101.394 42.9331 99.4662 43.8096L100.294 45.6304ZM106.48 44.52C108.158 44.52 109.81 44.7233 111.437 45.1301L111.923 43.1899C110.137 42.7434 108.322 42.52 106.48 42.52V44.52ZM111.452 45.1336C113.064 45.5115 114.465 46.0854 115.665 46.8451L116.735 45.1549C115.322 44.2612 113.709 43.6085 111.908 43.1864L111.452 45.1336ZM115.274 45.6234L113.274 50.5434L115.126 51.2966L117.126 46.3766L115.274 45.6234ZM114.696 50.0518C113.323 49.2669 111.936 48.6847 110.536 48.3134L110.024 50.2466C111.238 50.5686 112.464 51.0798 113.704 51.7882L114.696 50.0518ZM110.555 48.3185C109.166 47.9218 107.794 47.72 106.44 47.72V49.72C107.593 49.72 108.78 49.8916 110.005 50.2415L110.555 48.3185ZM106.44 47.72C105.119 47.72 103.965 47.8731 103.016 48.2211L103.704 50.0989C104.355 49.8602 105.254 49.72 106.44 49.72V47.72ZM103.016 48.2211C102.107 48.5543 101.334 49.0363 100.829 49.7345L102.451 50.9055C102.64 50.6437 103.013 50.3523 103.704 50.0989L103.016 48.2211ZM100.846 49.7125C100.355 50.3537 100.12 51.1046 100.12 51.92H102.12C102.12 51.5088 102.231 51.193 102.434 50.9274L100.846 49.7125ZM100.12 51.92C100.12 52.9603 100.565 53.8352 101.389 54.4713L102.611 52.8887C102.261 52.6182 102.12 52.3197 102.12 51.92H100.12ZM101.412 54.4887C102.124 55.0066 103.017 55.396 104.052 55.6835L104.588 53.7565C103.703 53.5107 103.049 53.2067 102.588 52.8713L101.412 54.4887ZM104.052 55.6835C105.028 55.9546 106.095 56.2247 107.253 56.494L107.707 54.546C106.571 54.282 105.532 54.0188 104.588 53.7565L104.052 55.6835ZM107.258 56.4951C108.409 56.7566 109.546 57.0573 110.671 57.3972L111.249 55.4828C110.08 55.1293 108.898 54.8167 107.702 54.5449L107.258 56.4951ZM110.677 57.399C111.774 57.7231 112.759 58.1559 113.639 58.6933L114.681 56.9867C113.641 56.3508 112.493 55.8502 111.243 55.481L110.677 57.399ZM113.639 58.6933C114.463 59.1972 115.123 59.8568 115.627 60.6814L117.333 59.6385C116.664 58.5432 115.777 57.6561 114.681 56.9867L113.639 58.6933ZM115.637 60.6984C116.122 61.4574 116.4 62.47 116.4 63.8H118.4C118.4 62.1967 118.064 60.7826 117.323 59.6216L115.637 60.6984ZM116.4 63.8C116.4 65.174 116.02 66.4196 115.251 67.5614L116.909 68.6786C117.9 67.2071 118.4 65.5726 118.4 63.8H116.4ZM115.251 67.5614C114.495 68.6832 113.336 69.6288 111.706 70.3696L112.534 72.1904C114.424 71.3312 115.905 70.1702 116.909 68.6786L115.251 67.5614ZM111.701 70.372C110.14 71.0923 108.096 71.48 105.52 71.48V73.48C108.278 73.48 110.633 73.0677 112.539 72.188L111.701 70.372Z" fill="#FAEB8C"/>
</svg>
