<svg width="24" height="21" viewBox="0 0 24 21" fill="none" xmlns="http://www.w3.org/2000/svg">
<path d="M22.3508 0.0785474L0.507346 8.5907C-0.200167 8.86644 -0.157305 9.88173 0.570994 10.0968L6.12165 11.7358L8.19315 18.309C8.40954 18.9955 9.27961 19.2037 9.78328 18.6894L12.6531 15.7592L18.284 19.8923C18.9731 20.3982 19.9544 20.0224 20.1294 19.1857L23.8588 1.3556C24.0414 0.482226 23.1822 -0.245428 22.3508 0.0785474ZM19.6122 4.03549L9.46604 13.0077C9.36491 13.0972 9.30054 13.221 9.28549 13.3551L8.89486 16.8277C8.8821 16.9409 8.72362 16.9559 8.68979 16.8471L7.0826 11.6683C7.00899 11.4312 7.10497 11.1743 7.31591 11.0435L19.2975 3.61246C19.573 3.44144 19.8551 3.82075 19.6122 4.03549Z" fill="#FAEB8C"/>
</svg>
