<svg width="22" height="22" viewBox="0 0 22 22" fill="none" xmlns="http://www.w3.org/2000/svg">
<path d="M19.7595 5.40659C18.8125 3.74334 17.528 2.42655 15.9056 1.45591C14.2829 0.485221 12.5115 0 10.59 0C8.66869 0 6.89666 0.485369 5.27434 1.45591C3.65178 2.4265 2.36729 3.74334 1.4203 5.40659C0.473448 7.06979 0 8.88601 0 10.8552C0 13.2207 0.67325 15.3477 2.02009 17.237C3.36678 19.1264 5.10651 20.4338 7.23912 21.1593C7.48737 21.2065 7.67113 21.1733 7.79062 21.0605C7.91015 20.9475 7.96985 20.806 7.96985 20.6366C7.96985 20.6083 7.96748 20.354 7.96289 19.8734C7.95816 19.3927 7.95594 18.9734 7.95594 18.6156L7.63878 18.6718C7.43656 18.7098 7.18146 18.7259 6.87347 18.7213C6.56563 18.7169 6.24606 18.6838 5.91518 18.6224C5.58416 18.5614 5.27627 18.4201 4.99127 18.1986C4.70642 17.9772 4.5042 17.6873 4.38467 17.3295L4.24679 17.0042C4.15488 16.7877 4.01018 16.5471 3.81251 16.2834C3.61483 16.0195 3.41493 15.8406 3.21271 15.7464L3.11617 15.6755C3.05184 15.6285 2.99215 15.5717 2.93694 15.5058C2.88179 15.4399 2.8405 15.3739 2.81292 15.3079C2.78529 15.2418 2.80819 15.1876 2.88184 15.1451C2.95549 15.1025 3.08859 15.0819 3.28173 15.0819L3.5574 15.1241C3.74127 15.1619 3.9687 15.2747 4.23998 15.4633C4.51111 15.6517 4.734 15.8967 4.90869 16.1981C5.12022 16.5845 5.37508 16.879 5.67399 17.0816C5.97265 17.2843 6.27378 17.3854 6.57708 17.3854C6.88038 17.3854 7.14234 17.3619 7.36305 17.315C7.58352 17.2678 7.79038 17.197 7.98351 17.1028C8.06625 16.4712 8.2915 15.986 8.65908 15.6468C8.13516 15.5904 7.66413 15.5054 7.24574 15.3924C6.82759 15.2792 6.39548 15.0955 5.94971 14.8408C5.50369 14.5865 5.1337 14.2707 4.83962 13.894C4.5455 13.517 4.30411 13.0221 4.11581 12.4098C3.9274 11.7972 3.83318 11.0905 3.83318 10.2896C3.83318 9.14919 4.19636 8.17875 4.92259 7.37772C4.5824 6.52035 4.61451 5.55922 5.01904 4.49442C5.28564 4.40951 5.68099 4.47323 6.20491 4.68517C6.72892 4.89721 7.11259 5.07885 7.35629 5.22945C7.59999 5.38 7.79526 5.50758 7.94237 5.61105C8.79745 5.36614 9.67987 5.24366 10.5899 5.24366C11.4999 5.24366 12.3825 5.36614 13.2376 5.61105L13.7616 5.27198C14.1199 5.04573 14.543 4.8384 15.0299 4.64992C15.5171 4.46155 15.8897 4.40966 16.1472 4.49457C16.5607 5.55942 16.5976 6.5205 16.2573 7.37787C16.9835 8.1789 17.3468 9.14959 17.3468 10.2897C17.3468 11.0907 17.2522 11.7996 17.0641 12.4169C16.8758 13.0343 16.6323 13.5287 16.3336 13.901C16.0346 14.2734 15.6623 14.5867 15.2165 14.841C14.7706 15.0955 14.3384 15.2791 13.9202 15.3923C13.5019 15.5055 13.0309 15.5905 12.5069 15.6471C12.9848 16.071 13.2238 16.74 13.2238 17.654V20.6362C13.2238 20.8056 13.2812 20.9471 13.3963 21.0601C13.5112 21.1729 13.6926 21.2061 13.9409 21.1589C16.0738 20.4334 17.8135 19.126 19.1601 17.2366C20.5066 15.3474 21.1801 13.2203 21.1801 10.8548C21.1796 8.88586 20.706 7.06979 19.7595 5.40659Z" fill="#FAEB8C"/>
</svg>
