<svg width="24" height="19" viewBox="0 0 24 19" fill="none" xmlns="http://www.w3.org/2000/svg">
<path d="M23.2981 2.24148C22.4412 2.62148 21.5194 2.87849 20.5526 2.99327C21.5397 2.40189 22.2972 1.46616 22.6547 0.34934C21.7311 0.897234 20.7077 1.2947 19.6194 1.50894C18.7474 0.580332 17.5052 0 16.1295 0C13.4902 0 11.3496 2.1406 11.3496 4.7799C11.3496 5.15455 11.3921 5.51922 11.474 5.86927C7.50154 5.67 3.97927 3.76717 1.62158 0.87442C1.21021 1.58023 0.974231 2.40189 0.974231 3.27774C0.974231 4.93568 1.81871 6.39934 3.10057 7.25629C2.31741 7.2317 1.57987 7.01675 0.935733 6.65778C0.935376 6.6781 0.935376 6.69842 0.935376 6.71838C0.935376 9.03436 2.58369 10.9661 4.76992 11.4049C4.36925 11.5147 3.94612 11.5728 3.51087 11.5728C3.20217 11.5728 2.90309 11.5432 2.6115 11.4876C3.21963 13.3861 4.98451 14.7682 7.07663 14.807C5.44044 16.0893 3.37969 16.8532 1.13963 16.8532C0.754646 16.8532 0.373224 16.8307 0 16.7862C2.11422 18.1429 4.62733 18.9339 7.32652 18.9339C16.1185 18.9339 20.9265 11.6505 20.9265 5.3335C20.9265 5.12639 20.9219 4.91999 20.9126 4.71538C21.8473 4.04165 22.6576 3.20003 23.2981 2.24148Z" fill="#FAEB8C"/>
</svg>
